<?xml version="1.0" encoding="UTF-8"?>
<svg width="32px" height="32px" viewBox="0 0 32 32" version="1.1" xmlns="http://www.w3.org/2000/svg" xmlns:xlink="http://www.w3.org/1999/xlink">
    <title>Vite Logo</title>
    <defs>
        <linearGradient x1="30.3119%" y1="9.56389%" x2="73.8342%" y2="98.0517%" id="linearGradient-1">
            <stop stop-color="#41D1FF" offset="0%"></stop>
            <stop stop-color="#BD34FE" offset="100%"></stop>
        </linearGradient>
        <linearGradient x1="64.4968%" y1="8.30591%" x2="42.8551%" y2="93.2675%" id="linearGradient-2">
            <stop stop-color="#FFEA83" offset="0%"></stop>
            <stop stop-color="#FFDD35" offset="8.33%"></stop>
            <stop stop-color="#FFA800" offset="100%"></stop>
        </linearGradient>
    </defs>
    <g id="Page-1" stroke="none" stroke-width="1" fill="none" fill-rule="evenodd">
        <path d="M29.8836,6.45995 L16.0602,29.4851 C15.8526,29.8061 15.3824,29.8061 15.1747,29.4851 L1.31651,6.45995 C1.08342,6.09969 1.36245,5.63247 1.78707,5.68145 L15.6001,7.41571 C15.6518,7.42374 15.7049,7.42374 15.7566,7.41571 L29.4129,5.68145 C29.8376,5.63247 30.1166,6.09969 29.8836,6.45995 Z" id="Path" fill="url(#linearGradient-1)" fill-rule="nonzero"></path>
        <path d="M21.6281,0.293712 L12.5349,1.64336 C12.3309,1.67492 12.1694,1.83554 12.1379,2.03955 L10.2471,14.5396 C10.2079,14.7957 10.3967,15.0313 10.6528,15.0705 C10.6856,15.0759 10.7188,15.0786 10.752,15.0786 L13.9509,15.0786 C14.2124,15.0786 14.4242,14.8668 14.4242,14.6053 C14.4242,14.5721 14.4215,14.5389 14.4161,14.5061 L13.0773,5.91762 C13.0458,5.71361 13.2073,5.52446 13.4113,5.49289 L18.7341,4.68414 C18.9381,4.65258 19.1273,4.78415 19.1588,4.98816 L20.2922,12.2303 C20.3237,12.4343 20.5129,12.5659 20.7169,12.5343 C20.7497,12.5289 20.7815,12.519 20.8114,12.5048 L22.2372,11.8689 C22.4284,11.7841 22.6445,11.8842 22.7293,12.0754 C22.7435,12.1054 22.7534,12.1371 22.7588,12.1699 L23.4962,17.0594 C23.5277,17.2634 23.7169,17.395 23.9209,17.3634 C23.9537,17.358 23.9855,17.3481 24.0154,17.3339 L25.5427,16.6565 C25.7339,16.5717 25.95,16.6718 26.0348,16.863 C26.049,16.893 26.0589,16.9247 26.0643,16.9575 L28.0064,29.4575 C28.0379,29.6615 27.8764,29.8506 27.6724,29.8822 C27.6396,29.8876 27.6064,29.8903 27.5732,29.8903 L24.3743,29.8903 C24.1128,29.8903 23.901,29.6785 23.901,29.417 C23.901,29.3838 23.9037,29.3506 23.9091,29.3178 L24.8963,23.2685 C24.9278,23.0645 24.7663,22.8754 24.5623,22.8438 C24.5295,22.8384 24.4963,22.8357 24.4631,22.8357 L22.7588,22.8357 C22.4973,22.8357 22.2855,22.6239 22.2855,22.3624 C22.2855,22.3292 22.2882,22.296 22.2936,22.2632 L23.0724,17.3738 C23.1039,17.1698 22.9424,16.9806 22.7384,16.9491 C22.7056,16.9437 22.6724,16.941 22.6392,16.941 L13.9509,16.941 C13.6894,16.941 13.4776,16.7292 13.4776,16.4677 C13.4776,16.4345 13.4803,16.4013 13.4857,16.3685 L15.3765,3.86845 C15.408,3.66444 15.2465,3.47529 15.0425,3.44372 L5.94929,2.09408 C5.74528,2.06251 5.55613,2.22398 5.52456,2.42799 C5.51916,2.46079 5.51646,2.49399 5.51646,2.52724 L5.51646,29.417 C5.51646,29.6785 5.30467,29.8903 5.04316,29.8903 C5.00991,29.8903 4.97671,29.8876 4.94391,29.8822 L1.78707,29.4172 C1.36245,29.3682 1.08342,29.8354 1.31651,30.1957 L15.1747,53.2208 C15.3824,53.5418 15.8526,53.5418 16.0602,53.2208 L29.8836,30.1957 C30.1166,29.8354 29.8376,29.3682 29.4129,29.4172 L26.2561,29.8822 C26.0521,29.9138 25.8629,29.7523 25.8314,29.5483 L23.8892,17.0483 C23.8577,16.8443 24.0192,16.6551 24.2232,16.6236 C24.256,16.6182 24.2892,16.6155 24.3224,16.6155 L27.5213,16.6155 C27.7828,16.6155 27.9946,16.4037 27.9946,16.1422 C27.9946,16.109 27.9919,16.0758 27.9865,16.043 L25.9429,2.52724 C25.9429,2.26573 25.7311,2.05394 25.4696,2.05394 C25.4364,2.05394 25.4032,2.05664 25.3704,2.06204 L21.9288,2.56547 C21.7248,2.59704 21.5356,2.43557 21.5041,2.23156 L21.1281,0.293712 C21.0966,0.0897008 20.9073,0 20.7033,0 C20.6705,0 20.6373,0.00270386 20.6045,0.00810386 L21.6281,0.293712 Z" id="Path" fill="url(#linearGradient-2)" fill-rule="nonzero"></path>
    </g>
</svg>
